<svg id="visual" viewBox="0 0 960 300" width="960" height="300" xmlns="http://www.w3.org/2000/svg" xmlns:xlink="http://www.w3.org/1999/xlink" version="1.1"><rect x="0" y="0" width="960" height="300" fill="#9e00f1"></rect><path d="M0 94L22.8 88.2C45.7 82.3 91.3 70.7 137 74.8C182.7 79 228.3 99 274 110.2C319.7 121.3 365.3 123.7 411.2 114C457 104.3 503 82.7 548.8 81.7C594.7 80.7 640.3 100.3 686 100.8C731.7 101.3 777.3 82.7 823 85.2C868.7 87.7 914.3 111.3 937.2 123.2L960 135L960 301L937.2 301C914.3 301 868.7 301 823 301C777.3 301 731.7 301 686 301C640.3 301 594.7 301 548.8 301C503 301 457 301 411.2 301C365.3 301 319.7 301 274 301C228.3 301 182.7 301 137 301C91.3 301 45.7 301 22.8 301L0 301Z" fill="#b539eb"></path><path d="M0 138L22.8 141.2C45.7 144.3 91.3 150.7 137 154.3C182.7 158 228.3 159 274 161.3C319.7 163.7 365.3 167.3 411.2 161.5C457 155.7 503 140.3 548.8 132.3C594.7 124.3 640.3 123.7 686 126.8C731.7 130 777.3 137 823 137.5C868.7 138 914.3 132 937.2 129L960 126L960 301L937.2 301C914.3 301 868.7 301 823 301C777.3 301 731.7 301 686 301C640.3 301 594.7 301 548.8 301C503 301 457 301 411.2 301C365.3 301 319.7 301 274 301C228.3 301 182.7 301 137 301C91.3 301 45.7 301 22.8 301L0 301Z" fill="#cc73f1"></path><path d="M0 154L22.8 152.5C45.7 151 91.3 148 137 151C182.7 154 228.3 163 274 170.2C319.7 177.3 365.3 182.7 411.2 180.2C457 177.7 503 167.3 548.8 162.8C594.7 158.3 640.3 159.7 686 162C731.7 164.3 777.3 167.7 823 168.3C868.7 169 914.3 167 937.2 166L960 165L960 301L937.2 301C914.3 301 868.7 301 823 301C777.3 301 731.7 301 686 301C640.3 301 594.7 301 548.8 301C503 301 457 301 411.2 301C365.3 301 319.7 301 274 301C228.3 301 182.7 301 137 301C91.3 301 45.7 301 22.8 301L0 301Z" fill="#e0a3f7"></path><path d="M0 212L22.8 216.3C45.7 220.7 91.3 229.3 137 230.3C182.7 231.3 228.3 224.7 274 216.8C319.7 209 365.3 200 411.2 200.3C457 200.7 503 210.3 548.8 208.7C594.7 207 640.3 194 686 189.7C731.7 185.3 777.3 189.7 823 198.3C868.7 207 914.3 220 937.2 226.5L960 233L960 301L937.2 301C914.3 301 868.7 301 823 301C777.3 301 731.7 301 686 301C640.3 301 594.7 301 548.8 301C503 301 457 301 411.2 301C365.3 301 319.7 301 274 301C228.3 301 182.7 301 137 301C91.3 301 45.7 301 22.8 301L0 301Z" fill="#f1d1fb"></path><path d="M0 272L22.8 267.5C45.7 263 91.3 254 137 249.3C182.7 244.7 228.3 244.3 274 248.8C319.7 253.3 365.3 262.7 411.2 266C457 269.3 503 266.7 548.8 259.3C594.7 252 640.3 240 686 233.5C731.7 227 777.3 226 823 233.5C868.7 241 914.3 257 937.2 265L960 273L960 301L937.2 301C914.3 301 868.7 301 823 301C777.3 301 731.7 301 686 301C640.3 301 594.7 301 548.8 301C503 301 457 301 411.2 301C365.3 301 319.7 301 274 301C228.3 301 182.7 301 137 301C91.3 301 45.7 301 22.8 301L0 301Z" fill="#ffffff"></path></svg>